# xmcd CD database file
#
# Track frame offsets:
#	150
#	19679
#	30269
#	56033
#	70624
#	89449
#	119639
#	135926
#	157804
#	168464
#	196306
#	218269
#	239151
#	254689
#	270959
#	288860
#
# Disc length: 4071 seconds
#
# Revision: 2
# Processed by: cddbd v1.5.2PL0 Copyright (c) Steve Scherf et al.
# Submitted via: CDex 1.70beta2
#
DISCID=d60fe510
DTITLE=Various Artist - Salsa Picante Vol. 1 [CD 2)
DYEAR=2005
DGENRE=Salsa
TTITLE0=Celia Cruz - Celia's Oye Como Va (Oye Como Va)
TTITLE1=Rosemary Clooney - Sway
TTITLE2=Chispa and Los Cómplices - Qué Le Pasa A Mi Negra
TTITLE3=Jose Aguilera - Vaccillon 
TTITLE4=Ecos De Siboney - Cuentame
TTITLE5=Ritmo Alegria - Desenganos De La Vida
TTITLE6=Los Chicos - Sol De Playa
TTITLE7=Candido Fabre Y Su Banda - De Cuba Vengo Y Cubano Soy
TTITLE8=Ritmo Latino - La Bamba
TTITLE9=Cesar Pedroso - Ya Tu Campana No Suena
TTITLE10=Cheíto - Te Juro
TTITLE11=Bakuleye - La Suiza
TTITLE12=Los Tres - Flamenco
TTITLE13=Kid Creole and The Coconuts - Lambada
TTITLE14=Mamborama - Entre La Habana Y El Yuma
TTITLE15=Felix Baloy and Afro-Cuban All Stars - Cada Vez Que Te Veo
EXTD=YEAR: 2005
EXTT0=
EXTT1=
EXTT2=
EXTT3=
EXTT4=
EXTT5=
EXTT6=
EXTT7=
EXTT8=
EXTT9=
EXTT10=
EXTT11=
EXTT12=
EXTT13=
EXTT14=
EXTT15=
PLAYORDER=
